<?xml version="1.0" encoding="utf-8"?>
<!-- Generator: Adobe Illustrator 23.0.0, SVG Export Plug-In . SVG Version: 6.00 Build 0)  -->
<svg version="1.1" id="shortcut icon" xmlns="http://www.w3.org/2000/svg" xmlns:xlink="http://www.w3.org/1999/xlink" x="0px" y="0px"
	 viewBox="0 0 90 23" style="enable-background:new 0 0 90 23;" xml:space="preserve">
<style type="text/css">
	.st0{fill:#FFFFFF;}
	.st1{fill:#CF000F;}
</style>
<path class="st0" d="M21.5-25.6v1.4c0,2.9-1,5.2-2.9,7.1c-1.9,1.8-4.4,2.7-7.4,2.7c-3.2,0-5.9-1-8-3.1c-2.1-2.1-3.1-4.7-3.1-7.7
	c0-3,1-5.6,3.2-7.7c2.1-2.1,4.7-3.2,7.9-3.2c2,0,3.8,0.5,5.4,1.4s2.9,2.1,3.8,3.6l-3,1.7c-0.6-1-1.4-1.8-2.5-2.4
	c-1.1-0.6-2.3-0.9-3.7-0.9c-2.2,0-4,0.7-5.4,2.2s-2.1,3.2-2.1,5.4s0.7,3.9,2.1,5.4c1.4,1.4,3.3,2.1,5.6,2.1c1.9,0,3.4-0.4,4.5-1.3
	c1.2-0.9,1.9-2.1,2.3-3.5h-7v-3.1C11-25.6,21.5-25.6,21.5-25.6z M27.5-32.6c-0.4,0.4-0.9,0.6-1.4,0.6c-0.6,0-1-0.2-1.5-0.6
	C24.2-33,24-33.5,24-34.1s0.2-1,0.6-1.4c0.4-0.4,0.9-0.6,1.5-0.6s1.1,0.2,1.5,0.6c0.4,0.4,0.6,0.9,0.6,1.4S28-33,27.5-32.6z
	 M24.5-14.8v-15h3.2v15H24.5z M31.5-14.8v-21.9h3.2v21.9H31.5z M47-30.2c2.1,0,3.8,0.8,5.3,2.3s2.2,3.4,2.2,5.6
	c0,2.2-0.7,4.1-2.2,5.6c-1.5,1.5-3.2,2.3-5.3,2.3c-2.3,0-4-0.9-5.3-2.5v2.2h-3.2v-21h3.2v8.1C42.9-29.3,44.7-30.2,47-30.2z
	 M43.1-18.8c0.9,0.9,2,1.4,3.4,1.4s2.5-0.5,3.4-1.4c0.9-0.9,1.3-2.1,1.3-3.5c0-1.4-0.5-2.5-1.3-3.4c-0.9-0.9-2-1.4-3.4-1.4
	s-2.5,0.5-3.4,1.4c-0.9,0.9-1.3,2-1.3,3.4C41.7-20.9,42.2-19.7,43.1-18.8z M59.9-20.9c0.2,1.1,0.8,2,1.7,2.6
	c0.9,0.6,1.9,0.9,3.2,0.9c1.7,0,3-0.6,3.9-1.9l2.7,1.6c-1.5,2.2-3.7,3.3-6.6,3.3c-2.4,0-4.4-0.7-5.9-2.2c-1.5-1.5-2.3-3.4-2.3-5.7
	c0-2.2,0.7-4.1,2.2-5.6c1.5-1.5,3.4-2.3,5.7-2.3c2.2,0,4,0.8,5.4,2.3c1.4,1.5,2.1,3.4,2.1,5.6c0,0.3,0,0.8-0.1,1.4
	C71.9-20.9,59.9-20.9,59.9-20.9z M59.9-23.5h8.8c-0.2-1.2-0.7-2.1-1.5-2.8c-0.8-0.6-1.7-0.9-2.8-0.9c-1.2,0-2.2,0.3-3,1
	S60.1-24.7,59.9-23.5z M78.1-27.3c0.8-1.9,2.4-2.8,4.6-2.8v3.5c-1.2-0.1-2.3,0.2-3.2,0.9c-0.9,0.7-1.4,1.8-1.4,3.3v7.6h-3.2v-15h3.2
	C78.1-29.8,78.1-27.3,78.1-27.3z"/>
<path class="st1" d="M88.6,20.7c-0.4,0.4-1,0.7-1.6,0.7c-0.6,0-1.2-0.2-1.6-0.7c-0.4-0.4-0.7-1-0.7-1.6s0.2-1.1,0.6-1.6
	c0.4-0.4,1-0.7,1.6-0.7c0.6,0,1.2,0.2,1.6,0.7c0.4,0.4,0.7,1,0.7,1.6S89.1,20.3,88.6,20.7z"/>
<g>
	<path class="st0" d="M9,3.7v9.7c0,1.5-0.4,2.7-1.2,3.6c-0.8,1-1.9,1.4-3.2,1.4c-0.4,0-0.9-0.1-1.3-0.2v-4.2
		c0.2,0.1,0.4,0.1,0.6,0.1c0.6,0,0.8-0.5,0.8-1.4V3.7H9z"/>
	<path class="st0" d="M15.1,7.6v10.6h-4V7.6H15.1z M11.3,4.8c0-0.5,0.2-1,0.6-1.4s0.8-0.6,1.4-0.6s1,0.2,1.4,0.6s0.6,0.8,0.6,1.4
		c0,0.5-0.2,1-0.6,1.4s-0.8,0.6-1.4,0.6s-1-0.2-1.4-0.6S11.3,5.4,11.3,4.8z"/>
	<path class="st0" d="M23.3,14.3v4.1c-0.3,0.1-0.6,0.1-0.9,0.1c-1.6,0-2.9-0.5-4-1.6c-1.1-1.1-1.6-2.4-1.6-3.9
		c0-1.5,0.5-2.8,1.6-3.9s2.4-1.6,3.9-1.6c1.7,0,3.1,0.5,4.1,1.5c1,1,1.5,2.4,1.5,4.1v5.2h-4v-4.9c0-0.6-0.1-1-0.4-1.3
		c-0.3-0.3-0.6-0.5-1.1-0.5c-0.4,0-0.8,0.2-1.1,0.5c-0.3,0.3-0.5,0.7-0.5,1.1c0,0.4,0.1,0.8,0.4,1.1s0.6,0.4,1.1,0.4
		C22.7,14.5,23.1,14.5,23.3,14.3z"/>
	<path class="st0" d="M39.7,18.2h-4v-6c0-0.6-0.3-0.9-0.8-0.9c-0.5,0-0.7,0.3-0.7,0.9v6h-4v-5.9c0-1.4,0.5-2.5,1.4-3.5
		s2-1.4,3.4-1.4c1.4,0,2.6,0.5,3.4,1.4c0.8,0.9,1.3,2.2,1.3,3.8V18.2z"/>
	<path class="st0" d="M47.7,13.8v3.7c-0.6,0.2-1.1,0.3-1.7,0.3c-1.3,0-2.4-0.5-3.3-1.4c-0.9-0.9-1.3-2.1-1.3-3.6
		C41.4,11.3,42,10,43,9c1.1-1.1,2.4-1.6,3.9-1.6c1.7,0,3,0.5,3.9,1.5c0.9,1,1.4,2.5,1.4,4.4v3.5c0,1.8-0.5,3.4-1.6,4.6
		s-2.4,1.8-4,1.8c-0.7,0-1.5-0.1-2.2-0.4v-3.6c0.6,0.3,1.1,0.4,1.7,0.4c0.7,0,1.2-0.2,1.6-0.7c0.4-0.5,0.6-1.2,0.6-2v-4
		c0-1.1-0.4-1.7-1.3-1.7c-0.4,0-0.7,0.1-1,0.4c-0.3,0.3-0.4,0.6-0.4,1s0.1,0.7,0.4,1s0.6,0.4,1,0.4C47.1,14,47.4,14,47.7,13.8z"/>
	<path class="st0" d="M64.5,3.7v14.5h-4.3V3.7H64.5z M72.8,3.7l-3.8,6.6l3.8,7.9h-4.9l-3.3-8l3.7-6.5H72.8z"/>
	<path class="st0" d="M84.3,13.5h-6c-0.1-0.3-0.2-0.6-0.2-0.9c0-0.3,0.1-0.7,0.2-1h2c-0.1-0.8-0.6-1.2-1.3-1.2
		c-0.5,0-0.9,0.2-1.2,0.6c-0.3,0.4-0.5,1-0.5,1.6c0,0.7,0.2,1.2,0.5,1.7s0.7,0.7,1.2,0.7c0.4,0,0.8-0.2,1.2-0.6l2.3,2.7
		c-1,0.8-2.2,1.2-3.5,1.2c-1.6,0-2.9-0.5-3.9-1.6c-1.1-1.1-1.6-2.4-1.6-3.9c0-1.6,0.5-2.9,1.6-3.9c1.1-1.1,2.4-1.6,4-1.6
		c1.5,0,2.8,0.5,3.9,1.6c1.1,1,1.6,2.3,1.6,3.9C84.4,12.9,84.4,13.1,84.3,13.5z"/>
</g>
<text transform="matrix(1 0 0 1 90.8199 -14.7733)" class="st0" style="font-family:'STHupo'; font-size:21.7535px;">Kang Jian</text>
</svg>
